<svg width="256" height="256" viewBox="0 0 256 256" fill="none" xmlns="http://www.w3.org/2000/svg">
<rect width="256" height="256" rx="32" fill="#0E0E0B"/>
<path d="M153.207 147.423H149.345L149.21 151.282C148.981 157.786 148.031 162.35 146.635 165.29C145.319 168.063 143.389 169.852 140.752 170.877L140.738 170.882L140.724 170.888C137.824 172.04 133.69 172.721 128.118 172.721C123.398 172.721 119.776 172.088 117.096 171.002C114.62 169.968 112.699 168.356 111.248 166.096C109.71 163.7 108.475 160.443 107.672 156.172C106.862 151.804 106.438 146.421 106.438 139.976V116.024C106.438 109.474 106.899 104.06 107.772 99.7263C108.716 95.435 110.11 92.2295 111.81 89.9267C113.494 87.6456 115.603 86.0347 118.201 85.0289L118.232 85.0168L118.263 85.0043C120.986 83.8979 124.394 83.2786 128.592 83.2786C134.479 83.2786 138.631 84.0581 141.352 85.3148L141.38 85.3277L141.408 85.3401C143.843 86.4195 145.675 88.2888 146.903 91.2812L146.921 91.3248L146.939 91.368C148.308 94.4924 149.218 99.1474 149.446 105.585L149.583 109.443H153.444H188H192.374L191.984 105.086C190.994 94.0188 188.044 84.4318 182.984 76.4766C177.964 68.3939 170.831 62.2798 161.73 58.1318C152.618 53.9787 141.518 52 128.592 52C118.836 52 109.938 53.3655 101.951 56.1664C94.0213 58.9103 87.1586 63.0541 81.4272 68.6166L81.4237 68.62C75.755 74.1352 71.4267 80.9318 68.4011 88.9246L68.3945 88.9418L68.3882 88.9591C65.4327 96.9896 64 106.098 64 116.216V139.976C64 150.072 65.3475 159.155 68.1264 167.163L68.1343 167.186L68.1425 167.209C71.0122 175.167 75.2709 181.951 80.9503 187.476C86.6043 192.977 93.4239 197.117 101.338 199.922L101.352 199.928L101.367 199.933C109.284 202.671 118.22 204 128.118 204C140.808 204 151.866 202.085 161.167 198.1C170.567 194.107 177.963 188.177 183.174 180.269L183.179 180.263L183.183 180.256C188.385 172.293 191.142 162.68 191.641 151.603L191.829 147.423H187.645H153.207Z" fill="#FAFAFA" stroke="white" stroke-width="8"/>
</svg>
