<svg width="99" height="44" viewBox="0 0 99 44" fill="none" xmlns="http://www.w3.org/2000/svg">
<path d="M21.3125 12.9375V30H17.9961L12.6406 19.3242V30H9.38281V12.9375H12.6523L18.0547 23.7305V12.9375H21.3125ZM36.0078 12.9375V30H32.6914L27.3359 19.3242V30H24.0781V12.9375H27.3477L32.75 23.7305V12.9375H36.0078ZM45.1602 15.9844L41.4922 30H37.8711L43.2031 12.9375H45.4648L45.1602 15.9844ZM48.0547 30L44.3633 15.9844L44.0234 12.9375H46.3203L51.6992 30H48.0547ZM48.1836 23.6367V26.4844H40.4844V23.6367H48.1836ZM54.5469 12.9375H57.5586L61.0391 24.6094L64.5078 12.9375H67.168L62.3164 30H59.75L54.5469 12.9375ZM53.3281 12.9375H56.1992L56.6445 24.1875V30H53.3281V12.9375ZM65.8555 12.9375H68.7383V30H65.4336V24.1875L65.8555 12.9375ZM75.9922 30H72.9805L73.0039 27.1641H75.9922C76.8203 27.1641 77.4648 27.0156 77.9258 26.7188C78.3867 26.4219 78.7109 25.9531 78.8984 25.3125C79.0938 24.6719 79.1914 23.832 79.1914 22.793V20.1328C79.1914 19.3438 79.1406 18.6758 79.0391 18.1289C78.9375 17.5742 78.7656 17.1289 78.5234 16.793C78.2812 16.4492 77.957 16.1953 77.5508 16.0312C77.1445 15.8672 76.6406 15.7852 76.0391 15.7852H72.9219V12.9375H76.0391C77.0234 12.9375 77.918 13.0977 78.7227 13.418C79.5273 13.7383 80.2188 14.207 80.7969 14.8242C81.375 15.4336 81.8203 16.1875 82.1328 17.0859C82.4453 17.9844 82.6016 19.0078 82.6016 20.1562V22.793C82.6016 23.9492 82.4453 24.9727 82.1328 25.8633C81.8203 26.7539 81.375 27.5078 80.7969 28.125C80.2266 28.7344 79.5352 29.1992 78.7227 29.5195C77.9102 29.8398 77 30 75.9922 30ZM74.9727 12.9375V30H71.5391V12.9375H74.9727ZM88.6719 12.9375V30H85.2617V12.9375H88.6719Z" fill="#FAFAFA"/>
<rect x="0.25" y="0.25" width="98.5" height="43.5" rx="3.75" stroke="#FAFAFA" stroke-width="0.5"/>
</svg>
